<svg width="50" height="11" viewBox="0 0 50 11" fill="none" xmlns="http://www.w3.org/2000/svg">
<path d="M0.694064 3.04283C0.746241 2.23409 1.05495 1.60362 1.6202 1.15142C2.19415 0.699224 2.92462 0.473124 3.81163 0.473124C4.42036 0.473124 4.94647 0.581826 5.38998 0.79923C5.83348 1.01663 6.16828 1.3123 6.39438 1.68624C6.62048 2.06017 6.73353 2.48193 6.73353 2.95152C6.73353 3.49068 6.59004 3.95158 6.30307 4.33421C6.0161 4.71684 5.6726 4.97338 5.27258 5.10382V5.15599C5.78565 5.31252 6.18567 5.5995 6.47265 6.01691C6.75962 6.42563 6.90311 6.95175 6.90311 7.59526C6.90311 8.10833 6.78571 8.56488 6.55091 8.9649C6.31612 9.36492 5.96827 9.68233 5.50738 9.91713C5.04648 10.1432 4.49428 10.2563 3.85076 10.2563C2.91158 10.2563 2.13762 10.0171 1.52889 9.53885C0.92886 9.05186 0.607103 8.35617 0.563622 7.45177H1.99848C2.03327 7.91267 2.21154 8.29095 2.5333 8.58662C2.85505 8.87359 3.28986 9.01708 3.83772 9.01708C4.36818 9.01708 4.7769 8.87359 5.06387 8.58662C5.35085 8.29095 5.49433 7.91267 5.49433 7.45177C5.49433 6.84304 5.29867 6.41259 4.90734 6.1604C4.52471 5.89951 3.93337 5.76907 3.13333 5.76907H2.79418V4.54292H3.14637C3.85076 4.53422 4.38557 4.41682 4.75081 4.19072C5.12475 3.96462 5.31171 3.60808 5.31171 3.1211C5.31171 2.70368 5.17692 2.37323 4.90734 2.12974C4.63776 1.87755 4.25513 1.75146 3.75945 1.75146C3.27247 1.75146 2.89419 1.87755 2.62461 2.12974C2.35503 2.37323 2.19415 2.6776 2.14197 3.04283H0.694064ZM9.26085 10.2954C8.99127 10.2954 8.76517 10.2041 8.58255 10.0215C8.39993 9.83886 8.30862 9.61276 8.30862 9.34318C8.30862 9.0736 8.39993 8.8475 8.58255 8.66489C8.76517 8.48227 8.99127 8.39096 9.26085 8.39096C9.52173 8.39096 9.74348 8.48227 9.9261 8.66489C10.1087 8.8475 10.2 9.0736 10.2 9.34318C10.2 9.61276 10.1087 9.83886 9.9261 10.0215C9.74348 10.2041 9.52173 10.2954 9.26085 10.2954ZM9.26085 4.81684C8.99127 4.81684 8.76517 4.72554 8.58255 4.54292C8.39993 4.3603 8.30862 4.1342 8.30862 3.86462C8.30862 3.59504 8.39993 3.36894 8.58255 3.18632C8.76517 3.0037 8.99127 2.91239 9.26085 2.91239C9.52173 2.91239 9.74348 3.0037 9.9261 3.18632C10.1087 3.36894 10.2 3.59504 10.2 3.86462C10.2 4.1342 10.1087 4.3603 9.9261 4.54292C9.74348 4.72554 9.52173 4.81684 9.26085 4.81684ZM11.6625 5.32557C11.6625 3.82114 11.9147 2.64716 12.4191 1.80363C12.9321 0.951412 13.8105 0.525301 15.054 0.525301C16.2975 0.525301 17.1715 0.951412 17.6759 1.80363C18.189 2.64716 18.4455 3.82114 18.4455 5.32557C18.4455 6.84739 18.189 8.03876 17.6759 8.89968C17.1715 9.7519 16.2975 10.178 15.054 10.178C13.8105 10.178 12.9321 9.7519 12.4191 8.89968C11.9147 8.03876 11.6625 6.84739 11.6625 5.32557ZM16.9845 5.32557C16.9845 4.62118 16.9367 4.0255 16.8411 3.53851C16.7541 3.05153 16.5715 2.65585 16.2932 2.35149C16.0149 2.03843 15.6019 1.8819 15.054 1.8819C14.5061 1.8819 14.0931 2.03843 13.8148 2.35149C13.5365 2.65585 13.3496 3.05153 13.2539 3.53851C13.1669 4.0255 13.1235 4.62118 13.1235 5.32557C13.1235 6.05604 13.1669 6.66912 13.2539 7.1648C13.3409 7.66048 13.5235 8.0605 13.8018 8.36487C14.0887 8.66923 14.5061 8.82142 15.054 8.82142C15.6019 8.82142 16.0149 8.66923 16.2932 8.36487C16.5802 8.0605 16.7671 7.66048 16.8541 7.1648C16.9411 6.66912 16.9845 6.05604 16.9845 5.32557ZM21.8712 7.62135C21.9582 8.05616 22.1452 8.38661 22.4321 8.61271C22.7191 8.83881 23.1061 8.95186 23.5931 8.95186C24.2105 8.95186 24.6627 8.70837 24.9497 8.22138C25.2366 7.7344 25.3801 6.90392 25.3801 5.72994C25.1714 6.02561 24.8757 6.25606 24.4931 6.42128C24.1192 6.57781 23.7105 6.65608 23.267 6.65608C22.7017 6.65608 22.1886 6.54303 21.7277 6.31693C21.2668 6.08213 20.9016 5.73864 20.632 5.28644C20.3711 4.82554 20.2407 4.26899 20.2407 3.61678C20.2407 2.6602 20.519 1.89929 21.0755 1.33404C21.6408 0.760097 22.4147 0.473124 23.3974 0.473124C24.5801 0.473124 25.4193 0.868798 25.9149 1.66015C26.4193 2.4428 26.6715 3.64721 26.6715 5.27339C26.6715 6.39519 26.5758 7.31264 26.3845 8.02572C26.2019 8.7388 25.8801 9.27796 25.4193 9.6432C24.9584 10.0084 24.3192 10.1911 23.5018 10.1911C22.5713 10.1911 21.8538 9.94757 21.3495 9.46058C20.8451 8.9736 20.5625 8.36052 20.5016 7.62135H21.8712ZM23.5278 5.40383C24.0496 5.40383 24.4583 5.24296 24.754 4.9212C25.0584 4.59075 25.2105 4.15594 25.2105 3.61678C25.2105 3.01674 25.0497 2.5515 24.7279 2.22105C24.4148 1.8819 23.9844 1.71232 23.4365 1.71232C22.8887 1.71232 22.4539 1.88625 22.1321 2.23409C21.8191 2.57324 21.6625 3.02109 21.6625 3.57765C21.6625 4.10811 21.8147 4.54726 22.1191 4.89511C22.4321 5.23426 22.9017 5.40383 23.5278 5.40383ZM38.2225 3.83853C38.2225 4.29942 38.1138 4.73423 37.8964 5.14295C37.679 5.55167 37.3312 5.88647 36.8529 6.14735C36.3746 6.39954 35.7615 6.52564 35.0137 6.52564H33.3701V10.2041H31.8831V1.13838H35.0137C35.7094 1.13838 36.2964 1.26012 36.7746 1.50362C37.2616 1.73841 37.6225 2.06017 37.8573 2.46889C38.1008 2.87761 38.2225 3.33415 38.2225 3.83853ZM35.0137 5.31252C35.5789 5.31252 36.0007 5.18643 36.279 4.93424C36.5572 4.67336 36.6964 4.30812 36.6964 3.83853C36.6964 2.84717 36.1355 2.35149 35.0137 2.35149H33.3701V5.31252H35.0137ZM49.1892 1.13838V10.2041H47.7021V3.99506L44.9367 10.2041H43.9063L41.1278 3.99506V10.2041H39.6408V1.13838H41.2452L44.428 8.24747L47.5978 1.13838H49.1892Z" fill="#ACADB9"/>
</svg>
