<svg width="70" height="24" viewBox="0 0 70 24" fill="none" xmlns="http://www.w3.org/2000/svg">
<path d="M5.75817 23.8648V20.7914H8.88346V23.8648H5.75817ZM5.75817 3.11599V0.042573H8.88346V3.11599H5.75817ZM7.39214 21.6732C6.07805 21.6732 4.90229 21.4312 3.86484 20.947C2.8274 20.4629 1.97584 19.7799 1.31015 18.8981C0.653099 18.0162 0.2338 16.9702 0.052248 15.7598L3.13864 15.267C3.3807 16.3304 3.89943 17.1776 4.6948 17.8088C5.49881 18.4312 6.45845 18.7424 7.5737 18.7424C8.64572 18.7424 9.52754 18.4917 10.2192 17.9903C10.9108 17.4802 11.2566 16.8362 11.2566 16.0581C11.2566 15.5134 11.0924 15.0725 10.7638 14.7353C10.4353 14.3895 9.90794 14.1042 9.18173 13.8794L4.68183 12.4789C2.06229 11.6662 0.752521 10.0755 0.752521 7.70667C0.752521 6.60007 1.0162 5.63611 1.54357 4.8148C2.07958 3.98485 2.83173 3.34942 3.8 2.9085C4.76828 2.45895 5.90947 2.23849 7.22356 2.24714C8.44255 2.25578 9.52754 2.47624 10.4785 2.9085C11.4382 3.34077 12.2335 3.96324 12.8646 4.7759C13.5044 5.58856 13.9583 6.56548 14.2263 7.70667L11.0232 8.29023C10.9022 7.67641 10.6644 7.13608 10.3099 6.66923C9.95549 6.20238 9.51025 5.83928 8.97424 5.57992C8.43823 5.32056 7.8417 5.18223 7.18466 5.16494C6.55355 5.15629 5.98728 5.25572 5.48585 5.4632C4.98442 5.66205 4.58673 5.94734 4.29279 6.31909C3.99885 6.6822 3.85188 7.09285 3.85188 7.55105C3.85188 8.06113 4.05504 8.49772 4.46137 8.86082C4.87635 9.22393 5.52907 9.53516 6.41954 9.79452L9.77826 10.7671C11.3949 11.234 12.5577 11.8694 13.2667 12.6734C13.9842 13.4688 14.343 14.5278 14.343 15.8506C14.343 17.0091 14.0534 18.0249 13.4741 18.8981C12.8949 19.7712 12.0822 20.4542 11.0362 20.947C9.99007 21.4312 8.7754 21.6732 7.39214 21.6732ZM20.3972 21.2842V6.02083L16.8959 8.16055V4.71106L20.3972 2.61024H23.5874V21.2842H20.3972ZM28.0089 21.2582V18.535L35.9971 11.4155C36.6196 10.8622 37.0519 10.3392 37.294 9.84639C37.536 9.35361 37.6571 8.87811 37.6571 8.41991C37.6571 7.79745 37.5231 7.24414 37.255 6.76001C36.987 6.26722 36.6153 5.87818 36.1398 5.59288C35.6729 5.30759 35.1326 5.16494 34.5188 5.16494C33.8704 5.16494 33.2955 5.31623 32.794 5.61882C32.3013 5.91276 31.9165 6.30612 31.6399 6.79891C31.3632 7.29169 31.2336 7.82338 31.2509 8.39397H28.0348C28.0348 7.14905 28.3114 6.06406 28.8647 5.139C29.4267 4.21395 30.1961 3.49639 31.173 2.98631C32.1586 2.47624 33.2955 2.2212 34.5836 2.2212C35.7767 2.2212 36.8487 2.48921 37.7997 3.02522C38.7507 3.55258 39.4985 4.28744 40.0432 5.22978C40.5878 6.16348 40.8602 7.23982 40.8602 8.45881C40.8602 9.34928 40.7391 10.0971 40.4971 10.7023C40.255 11.3075 39.8919 11.8651 39.4077 12.3752C38.9322 12.8852 38.34 13.4515 37.6311 14.074L31.9641 19.0926L31.6788 18.3145H40.8602V21.2582H28.0089Z" fill="#323142"/>
<path d="M43.8547 21.2842V18.9617H46.1773V21.2842H43.8547ZM53.5625 7.48075C54.4463 7.48075 55.2425 7.69075 55.9508 8.11075C56.6592 8.52447 57.2171 9.10118 57.6245 9.84088C58.0382 10.5743 58.2451 11.4206 58.2451 12.3797V16.5075C58.2451 17.5293 58.0382 18.4226 57.6245 19.1873C57.2171 19.9458 56.6435 20.5319 55.9038 20.9457C55.1641 21.3594 54.299 21.5663 53.3086 21.5663C52.6253 21.5663 51.9797 21.4503 51.3716 21.2184C50.7636 20.9802 50.2182 20.6166 49.7355 20.1276L51.3622 18.5385C51.6067 18.8206 51.8982 19.0432 52.2367 19.2061C52.5814 19.3629 52.9388 19.4412 53.3086 19.4412C53.8352 19.4412 54.2959 19.319 54.6908 19.0745C55.0857 18.8238 55.3929 18.5009 55.6123 18.106C55.8317 17.7048 55.9414 17.2754 55.9414 16.8178V14.5705L56.3457 15.0219C55.9633 15.4732 55.4995 15.8274 54.9541 16.0844C54.4087 16.3351 53.8352 16.4605 53.2334 16.4605C52.3871 16.4605 51.6349 16.2662 50.9767 15.8775C50.3248 15.4889 49.8107 14.9623 49.4346 14.2978C49.0648 13.6271 48.8798 12.8686 48.8798 12.0223C48.8798 11.1761 49.093 10.4113 49.5192 9.72804C49.9455 9.0385 50.5128 8.49313 51.2212 8.09194C51.9358 7.68448 52.7162 7.48075 53.5625 7.48075ZM53.5625 9.64342C53.1237 9.64342 52.7225 9.74998 52.3589 9.96311C51.9953 10.1762 51.707 10.4646 51.4938 10.8282C51.2807 11.1855 51.1741 11.5835 51.1741 12.0223C51.1741 12.4611 51.2776 12.8623 51.4844 13.2259C51.6976 13.5895 51.9828 13.8778 52.3401 14.091C52.7037 14.3041 53.1049 14.4107 53.5437 14.4107C53.9825 14.4107 54.3837 14.3041 54.7472 14.091C55.1108 13.8778 55.3992 13.5895 55.6123 13.2259C55.8317 12.8623 55.9414 12.4611 55.9414 12.0223C55.9414 11.5961 55.8348 11.2043 55.6217 10.847C55.4086 10.4834 55.1202 10.1919 54.7566 9.97252C54.3993 9.75312 54.0013 9.64342 53.5625 9.64342ZM65.2426 7.48075C66.1265 7.48075 66.9226 7.69075 67.6309 8.11075C68.3393 8.52447 68.8972 9.10118 69.3047 9.84088C69.7184 10.5743 69.9253 11.4206 69.9253 12.3797V16.5075C69.9253 17.5293 69.7184 18.4226 69.3047 19.1873C68.8972 19.9458 68.3236 20.5319 67.5839 20.9457C66.8442 21.3594 65.9792 21.5663 64.9887 21.5663C64.3055 21.5663 63.6598 21.4503 63.0517 21.2184C62.4437 20.9802 61.8983 20.6166 61.4156 20.1276L63.0423 18.5385C63.2868 18.8206 63.5783 19.0432 63.9168 19.2061C64.2616 19.3629 64.6189 19.4412 64.9887 19.4412C65.5153 19.4412 65.976 19.319 66.371 19.0745C66.7659 18.8238 67.073 18.5009 67.2924 18.106C67.5118 17.7048 67.6215 17.2754 67.6215 16.8178V14.5705L68.0259 15.0219C67.6435 15.4732 67.1796 15.8274 66.6342 16.0844C66.0889 16.3351 65.5153 16.4605 64.9135 16.4605C64.0673 16.4605 63.315 16.2662 62.6568 15.8775C62.0049 15.4889 61.4909 14.9623 61.1148 14.2978C60.7449 13.6271 60.56 12.8686 60.56 12.0223C60.56 11.1761 60.7731 10.4113 61.1994 9.72804C61.6256 9.0385 62.1929 8.49313 62.9013 8.09194C63.6159 7.68448 64.3964 7.48075 65.2426 7.48075ZM65.2426 9.64342C64.8038 9.64342 64.4026 9.74998 64.039 9.96311C63.6755 10.1762 63.3871 10.4646 63.174 10.8282C62.9609 11.1855 62.8543 11.5835 62.8543 12.0223C62.8543 12.4611 62.9577 12.8623 63.1646 13.2259C63.3777 13.5895 63.6629 13.8778 64.0202 14.091C64.3838 14.3041 64.785 14.4107 65.2238 14.4107C65.6626 14.4107 66.0638 14.3041 66.4274 14.091C66.791 13.8778 67.0793 13.5895 67.2924 13.2259C67.5118 12.8623 67.6215 12.4611 67.6215 12.0223C67.6215 11.5961 67.515 11.2043 67.3018 10.847C67.0887 10.4834 66.8004 10.1919 66.4368 9.97252C66.0795 9.75312 65.6814 9.64342 65.2426 9.64342Z" fill="#8E97A6"/>
</svg>
