<svg width="71" height="25" viewBox="0 0 71 25" fill="none" xmlns="http://www.w3.org/2000/svg">
<path d="M6.16735 24.4659V21.3925H9.29264V24.4659H6.16735ZM6.16735 3.71707V0.643647H9.29264V3.71707H6.16735ZM7.80132 22.2743C6.48723 22.2743 5.31146 22.0322 4.27402 21.5481C3.23658 21.0639 2.38502 20.381 1.71932 19.4991C1.06228 18.6173 0.64298 17.5712 0.461428 16.3609L3.54782 15.8681C3.78988 16.9315 4.30861 17.7787 5.10398 18.4098C5.90799 19.0323 6.86763 19.3435 7.98288 19.3435C9.0549 19.3435 9.93672 19.0928 10.6284 18.5914C11.32 18.0813 11.6658 17.4372 11.6658 16.6591C11.6658 16.1145 11.5015 15.6736 11.173 15.3364C10.8445 14.9906 10.3171 14.7053 9.59091 14.4805L5.09101 13.08C2.47147 12.2673 1.1617 10.6766 1.1617 8.30774C1.1617 7.20114 1.42538 6.23718 1.95275 5.41588C2.48876 4.58592 3.24091 3.95049 4.20918 3.50958C5.17746 3.06002 6.31865 2.83956 7.63274 2.84821C8.85173 2.85686 9.93672 3.07731 10.8877 3.50958C11.8473 3.94185 12.6427 4.56431 13.2738 5.37697C13.9136 6.18964 14.3675 7.16656 14.6355 8.30774L11.4324 8.8913C11.3113 8.27748 11.0736 7.73715 10.7191 7.2703C10.3647 6.80345 9.91943 6.44035 9.38342 6.18099C8.84741 5.92163 8.25088 5.7833 7.59384 5.76601C6.96273 5.75737 6.39646 5.85679 5.89503 6.06428C5.3936 6.26312 4.99591 6.54842 4.70197 6.92017C4.40803 7.28327 4.26106 7.69392 4.26106 8.15213C4.26106 8.6622 4.46422 9.09879 4.87055 9.4619C5.28553 9.825 5.93825 10.1362 6.82872 10.3956L10.1874 11.3682C11.8041 11.835 12.9669 12.4705 13.6758 13.2745C14.3934 14.0699 14.7522 15.1289 14.7522 16.4517C14.7522 17.6101 14.4626 18.626 13.8833 19.4991C13.3041 20.3723 12.4914 21.0553 11.4453 21.5481C10.3992 22.0322 9.18458 22.2743 7.80132 22.2743ZM20.8064 21.8853V6.6219L17.3051 8.76162V5.31213L20.8064 3.21131H23.9965V21.8853H20.8064ZM34.9669 2.84821C36.1859 2.84821 37.2838 3.13783 38.2608 3.71707C39.2377 4.28766 40.0071 5.08303 40.5691 6.10318C41.1397 7.11469 41.4249 8.28181 41.4249 9.60455V15.2975C41.4249 16.7067 41.1397 17.9387 40.5691 18.9934C40.0071 20.0395 39.2161 20.8478 38.1959 21.4184C37.1758 21.989 35.9827 22.2743 34.6167 22.2743C33.6744 22.2743 32.7839 22.1144 31.9453 21.7945C31.1067 21.466 30.3546 20.9645 29.6889 20.2902L31.9324 18.0986C32.2695 18.4876 32.6715 18.7945 33.1384 19.0193C33.6139 19.2355 34.1067 19.3435 34.6167 19.3435C35.343 19.3435 35.9784 19.1749 36.523 18.8378C37.0677 18.492 37.4913 18.0467 37.7939 17.5021C38.0965 16.9488 38.2478 16.3566 38.2478 15.7254V12.6261L38.8054 13.2486C38.278 13.871 37.6383 14.3595 36.8861 14.7139C36.134 15.0598 35.343 15.2327 34.513 15.2327C33.3459 15.2327 32.3084 14.9647 31.4007 14.4286C30.5016 13.8926 29.7926 13.1664 29.2739 12.25C28.7638 11.325 28.5088 10.2789 28.5088 9.11176C28.5088 7.94464 28.8028 6.88991 29.3906 5.94756C29.9785 4.99658 30.7609 4.24443 31.7378 3.69113C32.7234 3.12918 33.7998 2.84821 34.9669 2.84821ZM34.9669 5.83085C34.3617 5.83085 33.8084 5.97782 33.307 6.27176C32.8055 6.56571 32.4079 6.96339 32.1139 7.46482C31.82 7.95761 31.673 8.50659 31.673 9.11176C31.673 9.71693 31.8157 10.2702 32.1009 10.7717C32.3949 11.2731 32.7883 11.6708 33.281 11.9647C33.7825 12.2587 34.3358 12.4056 34.9409 12.4056C35.5461 12.4056 36.0994 12.2587 36.6008 11.9647C37.1023 11.6708 37.5 11.2731 37.7939 10.7717C38.0965 10.2702 38.2478 9.71693 38.2478 9.11176C38.2478 8.52388 38.1008 7.98354 37.8069 7.49076C37.5129 6.98933 37.1152 6.58732 36.6138 6.28473C36.121 5.98215 35.5721 5.83085 34.9669 5.83085Z" fill="#323142"/>
<path d="M44.9225 21.8853V19.5627H47.245V21.8853H44.9225ZM54.6302 8.08183C55.5141 8.08183 56.3102 8.29183 57.0185 8.71182C57.7269 9.12555 58.2848 9.70226 58.6922 10.442C59.106 11.1754 59.3128 12.0216 59.3128 12.9807V17.1086C59.3128 18.1304 59.106 19.0236 58.6922 19.7884C58.2848 20.5469 57.7112 21.133 56.9715 21.5468C56.2318 21.9605 55.3667 22.1673 54.3763 22.1673C53.693 22.1673 53.0474 22.0514 52.4393 21.8194C51.8313 21.5812 51.2859 21.2176 50.8032 20.7287L52.4299 19.1396C52.6744 19.4217 52.9659 19.6442 53.3044 19.8072C53.6492 19.9639 54.0065 20.0423 54.3763 20.0423C54.9029 20.0423 55.3636 19.9201 55.7585 19.6756C56.1535 19.4248 56.4606 19.102 56.68 18.7071C56.8994 18.3059 57.0091 17.8765 57.0091 17.4189V15.1716L57.4134 15.6229C57.0311 16.0743 56.5672 16.4284 56.0218 16.6855C55.4764 16.9362 54.9029 17.0616 54.3011 17.0616C53.4548 17.0616 52.7026 16.8673 52.0444 16.4786C51.3925 16.0899 50.8784 15.5634 50.5023 14.8989C50.1325 14.2282 49.9476 13.4697 49.9476 12.6234C49.9476 11.7772 50.1607 11.0124 50.587 10.3291C51.0132 9.63957 51.5805 9.0942 52.2889 8.69301C53.0035 8.28556 53.7839 8.08183 54.6302 8.08183ZM54.6302 10.2445C54.1914 10.2445 53.7902 10.3511 53.4266 10.5642C53.063 10.7773 52.7747 11.0657 52.5616 11.4293C52.3484 11.7866 52.2419 12.1846 52.2419 12.6234C52.2419 13.0622 52.3453 13.4634 52.5522 13.827C52.7653 14.1906 53.0505 14.4789 53.4078 14.6921C53.7714 14.9052 54.1726 15.0117 54.6114 15.0117C55.0502 15.0117 55.4514 14.9052 55.815 14.6921C56.1785 14.4789 56.4669 14.1906 56.68 13.827C56.8994 13.4634 57.0091 13.0622 57.0091 12.6234C57.0091 12.1972 56.9026 11.8054 56.6894 11.4481C56.4763 11.0845 56.1879 10.793 55.8244 10.5736C55.467 10.3542 55.069 10.2445 54.6302 10.2445ZM66.3103 8.08183C67.1942 8.08183 67.9903 8.29183 68.6987 8.71182C69.407 9.12555 69.9649 9.70226 70.3724 10.442C70.7861 11.1754 70.993 12.0216 70.993 12.9807V17.1086C70.993 18.1304 70.7861 19.0236 70.3724 19.7884C69.9649 20.5469 69.3913 21.133 68.6516 21.5468C67.912 21.9605 67.0469 22.1673 66.0565 22.1673C65.3732 22.1673 64.7275 22.0514 64.1195 21.8194C63.5114 21.5812 62.966 21.2176 62.4834 20.7287L64.1101 19.1396C64.3545 19.4217 64.646 19.6442 64.9845 19.8072C65.3293 19.9639 65.6866 20.0423 66.0565 20.0423C66.583 20.0423 67.0438 19.9201 67.4387 19.6756C67.8336 19.4248 68.1408 19.102 68.3602 18.7071C68.5796 18.3059 68.6893 17.8765 68.6893 17.4189V15.1716L69.0936 15.6229C68.7112 16.0743 68.2473 16.4284 67.702 16.6855C67.1566 16.9362 66.583 17.0616 65.9812 17.0616C65.135 17.0616 64.3827 16.8673 63.7245 16.4786C63.0726 16.0899 62.5586 15.5634 62.1825 14.8989C61.8126 14.2282 61.6277 13.4697 61.6277 12.6234C61.6277 11.7772 61.8408 11.0124 62.2671 10.3291C62.6934 9.63957 63.2607 9.0942 63.969 8.69301C64.6836 8.28556 65.4641 8.08183 66.3103 8.08183ZM66.3103 10.2445C65.8715 10.2445 65.4703 10.3511 65.1068 10.5642C64.7432 10.7773 64.4548 11.0657 64.2417 11.4293C64.0286 11.7866 63.922 12.1846 63.922 12.6234C63.922 13.0622 64.0254 13.4634 64.2323 13.827C64.4454 14.1906 64.7306 14.4789 65.088 14.6921C65.4515 14.9052 65.8527 15.0117 66.2915 15.0117C66.7303 15.0117 67.1315 14.9052 67.4951 14.6921C67.8587 14.4789 68.147 14.1906 68.3602 13.827C68.5796 13.4634 68.6893 13.0622 68.6893 12.6234C68.6893 12.1972 68.5827 11.8054 68.3696 11.4481C68.1564 11.0845 67.8681 10.793 67.5045 10.5736C67.1472 10.3542 66.7491 10.2445 66.3103 10.2445Z" fill="#8E97A6"/>
</svg>
