<svg width="66" height="14" viewBox="0 0 66 14" fill="none" xmlns="http://www.w3.org/2000/svg">
<path d="M7.5828 1.48896L4.58263 7.26755V10.5547H3.09559V7.26755L0.0823818 1.48896H1.739L3.83911 5.93704L5.93923 1.48896H7.5828ZM15.3502 6.78491C15.3502 7.05449 15.3328 7.29798 15.298 7.51539H9.80643C9.84991 8.08933 10.063 8.55023 10.4456 8.89807C10.8282 9.24592 11.2978 9.41984 11.8544 9.41984C12.6544 9.41984 13.2197 9.08504 13.5501 8.41544H15.1546C14.9371 9.07634 14.5415 9.61985 13.9675 10.046C13.4023 10.4634 12.6979 10.6721 11.8544 10.6721C11.1674 10.6721 10.5499 10.5199 10.0021 10.2155C9.46293 9.90248 9.03682 9.46767 8.72376 8.91112C8.41939 8.34587 8.26721 7.69366 8.26721 6.95449C8.26721 6.21532 8.41505 5.56745 8.71072 5.0109C9.01508 4.44565 9.43684 4.01084 9.976 3.70648C10.5239 3.40212 11.15 3.24993 11.8544 3.24993C12.5327 3.24993 13.137 3.39777 13.6675 3.69344C14.198 3.9891 14.611 4.40652 14.9067 4.94568C15.2024 5.47614 15.3502 6.08922 15.3502 6.78491ZM13.798 6.31532C13.7893 5.76746 13.5936 5.32831 13.211 4.99786C12.8283 4.6674 12.3544 4.50218 11.7891 4.50218C11.2761 4.50218 10.8369 4.6674 10.4717 4.99786C10.1064 5.31961 9.88904 5.75877 9.81947 6.31532H13.798ZM19.4225 10.6721C18.8572 10.6721 18.3485 10.5721 17.8963 10.3721C17.4528 10.1634 17.1006 9.88508 16.8397 9.53724C16.5788 9.1807 16.4397 8.78502 16.4223 8.35022H17.9615C17.9876 8.65458 18.1311 8.91112 18.392 9.11982C18.6615 9.31984 18.9963 9.41984 19.3964 9.41984C19.8138 9.41984 20.1355 9.34158 20.3616 9.18505C20.5964 9.01982 20.7138 8.81111 20.7138 8.55892C20.7138 8.28934 20.5834 8.08933 20.3225 7.95889C20.0703 7.82845 19.6659 7.68496 19.1094 7.52843C18.5702 7.3806 18.1311 7.23711 17.7919 7.09797C17.4528 6.95883 17.1571 6.74578 16.9049 6.45881C16.6614 6.17183 16.5397 5.79355 16.5397 5.32396C16.5397 4.94133 16.6527 4.59349 16.8788 4.28042C17.1049 3.95867 17.4267 3.70648 17.8441 3.52386C18.2702 3.34124 18.7572 3.24993 19.3051 3.24993C20.1225 3.24993 20.7791 3.45864 21.2747 3.87605C21.7791 4.28477 22.0487 4.84567 22.0835 5.55876H20.5964C20.5703 5.237 20.4399 4.98046 20.2051 4.78915C19.9703 4.59783 19.6529 4.50218 19.2529 4.50218C18.8616 4.50218 18.5615 4.57609 18.3528 4.72393C18.1441 4.87176 18.0398 5.06743 18.0398 5.31092C18.0398 5.50223 18.1093 5.66311 18.2485 5.79355C18.3876 5.92399 18.5572 6.02835 18.7572 6.10661C18.9572 6.17618 19.2529 6.26749 19.6442 6.38054C20.166 6.51968 20.5921 6.66317 20.9225 6.811C21.2617 6.95014 21.553 7.15885 21.7965 7.43712C22.04 7.7154 22.1661 8.08498 22.1748 8.54588C22.1748 8.9546 22.0617 9.31984 21.8356 9.64159C21.6095 9.96335 21.2878 10.2155 20.8704 10.3982C20.4616 10.5808 19.979 10.6721 19.4225 10.6721ZM25.5164 4.58044V8.55892C25.5164 8.8285 25.5773 9.02417 25.6991 9.14591C25.8295 9.25896 26.0469 9.31549 26.3513 9.31549H27.2644V10.5547H26.0904C25.4208 10.5547 24.9077 10.3982 24.5512 10.0851C24.1946 9.77204 24.0164 9.26331 24.0164 8.55892V4.58044H23.1685V3.36733H24.0164V1.58027H25.5164V3.36733H27.2644V4.58044H25.5164ZM35.2222 6.78491C35.2222 7.05449 35.2049 7.29798 35.1701 7.51539H29.6785C29.7219 8.08933 29.935 8.55023 30.3176 8.89807C30.7003 9.24592 31.1698 9.41984 31.7264 9.41984C32.5264 9.41984 33.0917 9.08504 33.4221 8.41544H35.0266C34.8092 9.07634 34.4135 9.61985 33.8396 10.046C33.2743 10.4634 32.5699 10.6721 31.7264 10.6721C31.0394 10.6721 30.422 10.5199 29.8741 10.2155C29.335 9.90248 28.9089 9.46767 28.5958 8.91112C28.2914 8.34587 28.1392 7.69366 28.1392 6.95449C28.1392 6.21532 28.2871 5.56745 28.5827 5.0109C28.8871 4.44565 29.3089 4.01084 29.848 3.70648C30.3959 3.40212 31.022 3.24993 31.7264 3.24993C32.4047 3.24993 33.0091 3.39777 33.5395 3.69344C34.07 3.9891 34.4831 4.40652 34.7787 4.94568C35.0744 5.47614 35.2222 6.08922 35.2222 6.78491ZM33.67 6.31532C33.6613 5.76746 33.4656 5.32831 33.083 4.99786C32.7004 4.6674 32.2264 4.50218 31.6612 4.50218C31.1481 4.50218 30.709 4.6674 30.3437 4.99786C29.9785 5.31961 29.7611 5.75877 29.6915 6.31532H33.67ZM38.1727 4.41087C38.3901 4.04563 38.6771 3.763 39.0336 3.56299C39.3988 3.35429 39.8293 3.24993 40.325 3.24993V4.78915H39.9467C39.3641 4.78915 38.9206 4.93698 38.6162 5.23265C38.3205 5.52832 38.1727 6.04139 38.1727 6.77187V10.5547H36.6856V3.36733H38.1727V4.41087ZM41.1962 6.9284C41.1962 6.20662 41.344 5.56745 41.6397 5.0109C41.9441 4.45435 42.3528 4.02389 42.8658 3.71952C43.3876 3.40646 43.9659 3.24993 44.6007 3.24993C45.0703 3.24993 45.5312 3.35429 45.9834 3.56299C46.4443 3.763 46.8095 4.03258 47.0791 4.37173V0.901976H48.5792V10.5547H47.0791V9.47202C46.8356 9.81986 46.4965 10.1068 46.0617 10.3329C45.6356 10.559 45.1442 10.6721 44.5877 10.6721C43.9616 10.6721 43.3876 10.5156 42.8658 10.2025C42.3528 9.88074 41.9441 9.43723 41.6397 8.87198C41.344 8.29804 41.1962 7.65018 41.1962 6.9284ZM47.0791 6.95449C47.0791 6.45881 46.9748 6.02835 46.7661 5.66311C46.5661 5.29787 46.3008 5.0196 45.9704 4.82828C45.6399 4.63697 45.2834 4.54131 44.9007 4.54131C44.5181 4.54131 44.1616 4.63697 43.8311 4.82828C43.5007 5.0109 43.2311 5.28483 43.0224 5.65007C42.8224 6.00661 42.7224 6.43272 42.7224 6.9284C42.7224 7.42408 42.8224 7.85889 43.0224 8.23282C43.2311 8.60675 43.5007 8.89373 43.8311 9.09374C44.1703 9.28505 44.5268 9.38071 44.9007 9.38071C45.2834 9.38071 45.6399 9.28505 45.9704 9.09374C46.3008 8.90242 46.5661 8.62415 46.7661 8.25891C46.9748 7.88497 47.0791 7.45017 47.0791 6.95449ZM50.0367 6.9284C50.0367 6.20662 50.1845 5.56745 50.4802 5.0109C50.7846 4.45435 51.1933 4.02389 51.7064 3.71952C52.2281 3.40646 52.8021 3.24993 53.4282 3.24993C53.9934 3.24993 54.4848 3.36298 54.9022 3.58908C55.3283 3.80649 55.6674 4.08041 55.9196 4.41087V3.36733H57.4197V10.5547H55.9196V9.48506C55.6674 9.82421 55.3239 10.1068 54.8891 10.3329C54.4543 10.559 53.9587 10.6721 53.4021 10.6721C52.7847 10.6721 52.2194 10.5156 51.7064 10.2025C51.1933 9.88074 50.7846 9.43723 50.4802 8.87198C50.1845 8.29804 50.0367 7.65018 50.0367 6.9284ZM55.9196 6.95449C55.9196 6.45881 55.8153 6.02835 55.6066 5.66311C55.4066 5.29787 55.1413 5.0196 54.8109 4.82828C54.4804 4.63697 54.1239 4.54131 53.7412 4.54131C53.3586 4.54131 53.0021 4.63697 52.6716 4.82828C52.3412 5.0109 52.0716 5.28483 51.8629 5.65007C51.6629 6.00661 51.5629 6.43272 51.5629 6.9284C51.5629 7.42408 51.6629 7.85889 51.8629 8.23282C52.0716 8.60675 52.3412 8.89373 52.6716 9.09374C53.0108 9.28505 53.3673 9.38071 53.7412 9.38071C54.1239 9.38071 54.4804 9.28505 54.8109 9.09374C55.1413 8.90242 55.4066 8.62415 55.6066 8.25891C55.8153 7.88497 55.9196 7.45017 55.9196 6.95449ZM65.8428 3.36733L61.4339 13.9331H59.8946L61.3556 10.4373L58.525 3.36733H60.1816L62.2035 8.8459L64.3036 3.36733H65.8428Z" fill="#ACADB9"/>
</svg>
