<svg width="24" height="14" viewBox="0 0 24 14" fill="none" xmlns="http://www.w3.org/2000/svg">
<path d="M6.00204 12.7759V10.3638H0.175081V9.15348L4.34214 0.326585H5.76862L1.60156 9.15348H6.00204V5.52244H7.28155V9.15348H8.63887V10.3638H7.28155V12.7759H6.00204ZM10.6241 12.7759V11.2975H12.1024V12.7759H10.6241ZM18.8701 0.0758694C19.6539 0.0758694 20.3629 0.266067 20.9968 0.646462C21.6366 1.02109 22.1438 1.53405 22.5184 2.18533C22.8931 2.83085 23.0804 3.55706 23.0804 4.36396V8.68663C23.0804 9.51658 22.8931 10.2601 22.5184 10.9171C22.1438 11.5742 21.6308 12.0929 20.9796 12.4733C20.334 12.8479 19.5992 13.0352 18.775 13.0352C18.0661 13.0352 17.409 12.8796 16.8039 12.5684C16.2044 12.2514 15.7088 11.8162 15.3169 11.2629L16.2851 10.4589C16.5503 10.8681 16.9018 11.1967 17.3399 11.4445C17.7837 11.6923 18.262 11.8162 18.775 11.8162C19.3629 11.8162 19.8816 11.6779 20.3312 11.4013C20.7865 11.1189 21.1438 10.75 21.4032 10.2947C21.6683 9.83358 21.8009 9.33503 21.8009 8.79902V6.08438L22.1121 6.44749C21.7548 7.01808 21.2793 7.47917 20.6856 7.83074C20.0977 8.18232 19.4522 8.35811 18.7491 8.35811C17.9825 8.35811 17.288 8.17367 16.6655 7.80481C16.0488 7.43594 15.5589 6.94027 15.1958 6.31781C14.8385 5.69534 14.6598 5.00083 14.6598 4.23428C14.6598 3.46773 14.85 2.77034 15.2304 2.14211C15.6108 1.50812 16.1209 1.00669 16.7606 0.637817C17.4004 0.263185 18.1035 0.0758694 18.8701 0.0758694ZM18.8701 1.30351C18.3283 1.30351 17.8355 1.43607 17.3917 1.70119C16.9479 1.96055 16.5935 2.31213 16.3284 2.75593C16.069 3.19972 15.9393 3.69251 15.9393 4.23428C15.9393 4.77605 16.069 5.26884 16.3284 5.71263C16.5877 6.15643 16.9393 6.51089 17.3831 6.77601C17.8269 7.03537 18.3197 7.16505 18.8614 7.16505C19.4032 7.16505 19.896 7.03537 20.3398 6.77601C20.7894 6.51089 21.1438 6.15643 21.4032 5.71263C21.6683 5.26884 21.8009 4.77605 21.8009 4.23428C21.8009 3.69827 21.6683 3.20837 21.4032 2.76457C21.1438 2.32078 20.7922 1.96632 20.3484 1.70119C19.9047 1.43607 19.4119 1.30351 18.8701 1.30351Z" fill="#8E97A6"/>
</svg>
