<svg width="26" height="15" viewBox="0 0 26 15" fill="none" xmlns="http://www.w3.org/2000/svg">
<path d="M6.75991 14.5312V11.8333H0.242383V10.4796L4.90329 0.606562H6.49882L1.83792 10.4796H6.75991V6.41819H8.19106V10.4796H9.70924V11.8333H8.19106V14.5312H6.75991ZM11.9297 14.5312V12.8777H13.5832V14.5312H11.9297ZM20.8145 14.8213C19.9442 14.8213 19.1739 14.6473 18.5034 14.2992C17.8394 13.9511 17.3172 13.4643 16.9369 12.839C16.563 12.2072 16.376 11.4691 16.376 10.6246C16.376 9.76075 16.5856 8.99361 17.0046 8.32316C17.4236 7.64627 18.0618 7.13376 18.9192 6.78564L18.8999 7.3465C18.1843 7.08219 17.6396 6.65026 17.2657 6.05073C16.8918 5.45119 16.7048 4.78719 16.7048 4.05872C16.7048 3.28513 16.8821 2.62113 17.2367 2.06672C17.5912 1.50586 18.0747 1.07394 18.6872 0.77095C19.306 0.46796 20.0152 0.316465 20.8145 0.316465C21.6139 0.316465 22.323 0.46796 22.9419 0.77095C23.5608 1.07394 24.0475 1.50586 24.4021 2.06672C24.7566 2.62113 24.9339 3.28513 24.9339 4.05872C24.9339 4.78719 24.7534 5.44797 24.3924 6.04106C24.0378 6.63415 23.4931 7.06929 22.7582 7.3465L22.7098 6.78564C23.5672 7.12731 24.2087 7.6366 24.6342 8.31349C25.0661 8.99038 25.282 9.76075 25.282 10.6246C25.282 11.4691 25.0919 12.2072 24.7115 12.839C24.3312 13.4643 23.8058 13.9511 23.1353 14.2992C22.4649 14.6473 21.6913 14.8213 20.8145 14.8213ZM20.8145 13.4579C21.6913 13.4579 22.4036 13.2161 22.9516 12.7326C23.4996 12.2427 23.7735 11.54 23.7735 10.6246C23.7735 9.69629 23.5028 8.99361 22.9613 8.51656C22.4197 8.03306 21.7042 7.79131 20.8145 7.79131C19.9249 7.79131 19.2126 8.03306 18.6775 8.51656C18.1424 8.99361 17.8749 9.69629 17.8749 10.6246C17.8749 11.54 18.1456 12.2427 18.6872 12.7326C19.2287 13.2161 19.9378 13.4579 20.8145 13.4579ZM20.8145 6.41819C21.5881 6.41819 22.2167 6.22156 22.7002 5.82832C23.1837 5.42863 23.4254 4.83876 23.4254 4.05872C23.4254 3.27868 23.1837 2.69526 22.7002 2.30847C22.2167 1.91522 21.5881 1.7186 20.8145 1.7186C20.0409 1.7186 19.4124 1.91522 18.9289 2.30847C18.4519 2.69526 18.2133 3.27868 18.2133 4.05872C18.2133 4.83876 18.4519 5.42863 18.9289 5.82832C19.4124 6.22156 20.0409 6.41819 20.8145 6.41819Z" fill="#8E97A6"/>
</svg>
