<svg width="52" height="14" viewBox="0 0 52 14" fill="none" xmlns="http://www.w3.org/2000/svg">
<path opacity="0.7" d="M6.544 13V10.248H0.688V8.952L6.512 1.08H8.016V8.952H9.568V10.248H8.016V13H6.544ZM1.872 9.512L1.648 8.952H6.544V2.392L7.008 2.52L1.872 9.512ZM12.2511 13L16.3631 7.64L16.6511 7.672C16.4911 7.88533 16.3151 8.056 16.1231 8.184C15.9311 8.30133 15.7178 8.38667 15.4831 8.44C15.2591 8.49333 15.0138 8.52 14.7471 8.52C14.0431 8.52 13.4085 8.36 12.8431 8.04C12.2885 7.70933 11.8458 7.26133 11.5151 6.696C11.1951 6.12 11.0351 5.464 11.0351 4.728C11.0351 3.992 11.2058 3.336 11.5471 2.76C11.8885 2.184 12.3578 1.73067 12.9551 1.4C13.5525 1.05867 14.2245 0.888 14.9711 0.888C15.7391 0.888 16.4165 1.05867 17.0031 1.4C17.6005 1.73067 18.0698 2.19467 18.4111 2.792C18.7525 3.37867 18.9231 4.056 18.9231 4.824C18.9231 5.24 18.8751 5.65067 18.7791 6.056C18.6831 6.46133 18.5285 6.872 18.3151 7.288C18.1125 7.704 17.8405 8.136 17.4991 8.584L14.1391 13H12.2511ZM14.9711 7.144C15.4298 7.144 15.8351 7.04267 16.1871 6.84C16.5498 6.62667 16.8325 6.33867 17.0351 5.976C17.2378 5.60267 17.3391 5.18667 17.3391 4.728C17.3391 4.248 17.2325 3.82667 17.0191 3.464C16.8165 3.10133 16.5391 2.81333 16.1871 2.6C15.8351 2.38667 15.4298 2.28 14.9711 2.28C14.5231 2.28 14.1231 2.38667 13.7711 2.6C13.4191 2.81333 13.1365 3.10133 12.9231 3.464C12.7205 3.82667 12.6191 4.248 12.6191 4.728C12.6191 5.18667 12.7205 5.60267 12.9231 5.976C13.1258 6.33867 13.4031 6.62667 13.7551 6.84C14.1178 7.04267 14.5231 7.144 14.9711 7.144ZM25.5893 13.192C24.6399 13.192 23.8079 12.936 23.0933 12.424C22.3893 11.9013 21.8399 11.1813 21.4453 10.264C21.0506 9.336 20.8533 8.25867 20.8533 7.032C20.8533 5.80533 21.0506 4.73333 21.4453 3.816C21.8399 2.888 22.3893 2.168 23.0933 1.656C23.7973 1.144 24.6239 0.888 25.5733 0.888C26.5226 0.888 27.3493 1.144 28.0533 1.656C28.7573 2.168 29.3066 2.888 29.7013 3.816C30.1066 4.73333 30.3093 5.80533 30.3093 7.032C30.3093 8.25867 30.1119 9.336 29.7173 10.264C29.3226 11.192 28.7679 11.912 28.0533 12.424C27.3493 12.936 26.5279 13.192 25.5893 13.192ZM25.5893 11.736C26.2293 11.736 26.7839 11.544 27.2533 11.16C27.7226 10.7653 28.0853 10.216 28.3413 9.512C28.6079 8.808 28.7413 7.98133 28.7413 7.032C28.7413 6.08267 28.6079 5.256 28.3413 4.552C28.0853 3.848 27.7173 3.304 27.2373 2.92C26.7679 2.536 26.2133 2.344 25.5733 2.344C24.9333 2.344 24.3786 2.536 23.9093 2.92C23.4399 3.304 23.0719 3.848 22.8053 4.552C22.5493 5.256 22.4213 6.08267 22.4213 7.032C22.4213 7.97067 22.5493 8.792 22.8053 9.496C23.0719 10.2 23.4399 10.7493 23.9093 11.144C24.3893 11.5387 24.9493 11.736 25.5893 11.736ZM37.1674 13.192C36.218 13.192 35.386 12.936 34.6714 12.424C33.9674 11.9013 33.418 11.1813 33.0234 10.264C32.6287 9.336 32.4314 8.25867 32.4314 7.032C32.4314 5.80533 32.6287 4.73333 33.0234 3.816C33.418 2.888 33.9674 2.168 34.6714 1.656C35.3754 1.144 36.202 0.888 37.1514 0.888C38.1007 0.888 38.9274 1.144 39.6314 1.656C40.3354 2.168 40.8847 2.888 41.2794 3.816C41.6847 4.73333 41.8874 5.80533 41.8874 7.032C41.8874 8.25867 41.69 9.336 41.2954 10.264C40.9007 11.192 40.346 11.912 39.6314 12.424C38.9274 12.936 38.106 13.192 37.1674 13.192ZM37.1674 11.736C37.8074 11.736 38.362 11.544 38.8314 11.16C39.3007 10.7653 39.6634 10.216 39.9194 9.512C40.186 8.808 40.3194 7.98133 40.3194 7.032C40.3194 6.08267 40.186 5.256 39.9194 4.552C39.6634 3.848 39.2954 3.304 38.8154 2.92C38.346 2.536 37.7914 2.344 37.1514 2.344C36.5114 2.344 35.9567 2.536 35.4874 2.92C35.018 3.304 34.65 3.848 34.3834 4.552C34.1274 5.256 33.9994 6.08267 33.9994 7.032C33.9994 7.97067 34.1274 8.792 34.3834 9.496C34.65 10.2 35.018 10.7493 35.4874 11.144C35.9674 11.5387 36.5274 11.736 37.1674 11.736ZM47.2415 13V9.688H43.9295V8.296H47.2415V5H48.6335V8.296H51.9295V9.688H48.6335V13H47.2415Z" fill="#334155"/>
</svg>
