<svg width="66" height="15" viewBox="0 0 66 15" fill="none" xmlns="http://www.w3.org/2000/svg">
<path d="M0.0382813 14.5216L0.0479512 13.2258L6.34307 7.5399C6.88459 7.04995 7.24237 6.5858 7.41643 6.14743C7.59694 5.70261 7.68719 5.23845 7.68719 4.75496C7.68719 4.18121 7.55181 3.66226 7.28105 3.1981C7.0103 2.73394 6.64606 2.36649 6.18835 2.09573C5.73064 1.81853 5.21814 1.67992 4.65083 1.67992C4.05775 1.67992 3.52912 1.82175 3.06497 2.1054C2.60081 2.38905 2.23335 2.76295 1.9626 3.22711C1.69828 3.69127 1.56935 4.19733 1.5758 4.74529H0.125311C0.125311 3.90078 0.325156 3.1433 0.724846 2.47286C1.12454 1.80241 1.66605 1.27701 2.34939 0.896659C3.03273 0.509863 3.80633 0.316465 4.67017 0.316465C5.51468 0.316465 6.27216 0.516309 6.94261 0.915999C7.6195 1.30924 8.15135 1.84431 8.53814 2.52121C8.93139 3.19165 9.12801 3.93946 9.12801 4.76463C9.12801 5.34482 9.0571 5.85733 8.91527 6.30215C8.77989 6.74052 8.56393 7.14988 8.26739 7.53023C7.97729 7.90413 7.60661 8.29093 7.15534 8.69062L1.56613 13.7383L1.34372 13.1581H9.12801V14.5216H0.0382813ZM17.2078 14.5312V11.8333H10.6903V10.4796L15.3512 0.606562H16.9467L12.2858 10.4796H17.2078V6.41819H18.639V10.4796H20.1572V11.8333H18.639V14.5312H17.2078ZM34.9394 14.5312L34.9491 7.67527C34.9491 6.86945 34.7235 6.23768 34.2722 5.77997C33.8274 5.31581 33.2601 5.08374 32.5703 5.08374C32.1771 5.08374 31.7935 5.17399 31.4196 5.35449C31.0457 5.535 30.7363 5.8251 30.4913 6.22479C30.2528 6.62448 30.1335 7.14665 30.1335 7.79131L29.2922 7.54957C29.2729 6.80176 29.4179 6.14743 29.7274 5.58657C30.0432 5.02572 30.4752 4.59057 31.0231 4.28113C31.5775 3.96525 32.2029 3.80731 32.8991 3.80731C33.9499 3.80731 34.7912 4.13286 35.4229 4.78397C36.0547 5.42863 36.3706 6.30215 36.3706 7.40452L36.3609 14.5312H34.9394ZM22.4749 14.5312V4.08773H23.7513V6.65993H23.9061V14.5312H22.4749ZM28.7217 14.5312L28.7314 7.77197C28.7314 6.94036 28.5089 6.28603 28.0641 5.80898C27.6258 5.32548 27.0456 5.08374 26.3235 5.08374C25.6015 5.08374 25.0181 5.33193 24.5733 5.82832C24.1285 6.31826 23.9061 6.97259 23.9061 7.79131L23.0551 7.32716C23.0551 6.65671 23.2131 6.05717 23.5289 5.52855C23.8448 4.99348 24.2767 4.57445 24.8247 4.27146C25.3727 3.96202 25.9948 3.80731 26.691 3.80731C27.355 3.80731 27.9449 3.94913 28.4606 4.23278C28.9828 4.51643 29.3921 4.92902 29.6887 5.47053C29.9852 6.01205 30.1335 6.6696 30.1335 7.4432L30.1238 14.5312H28.7217ZM39.0715 2.1054V0.509863H40.493V2.1054H39.0715ZM39.0715 14.5312V4.08773H40.493V14.5312H39.0715ZM50.9346 14.5312V9.20312C50.9346 8.62293 50.8798 8.09108 50.7702 7.60759C50.6606 7.11764 50.4833 6.69217 50.2383 6.33116C49.9998 5.9637 49.6871 5.68005 49.3003 5.4802C48.92 5.28036 48.4558 5.18043 47.9079 5.18043C47.405 5.18043 46.9602 5.26746 46.5734 5.44152C46.1931 5.61558 45.8707 5.867 45.6064 6.19578C45.3486 6.51811 45.1519 6.91135 45.0166 7.37551C44.8812 7.83966 44.8135 8.36829 44.8135 8.96137L43.8078 8.73897C43.8078 7.66883 43.9948 6.76953 44.3687 6.04106C44.7426 5.31259 45.2583 4.76141 45.9159 4.3875C46.5734 4.0136 47.3277 3.82665 48.1786 3.82665C48.8039 3.82665 49.3487 3.92335 49.8128 4.11674C50.2834 4.31014 50.6799 4.57123 51.0022 4.90001C51.331 5.22878 51.5953 5.60591 51.7952 6.03139C51.995 6.45042 52.1401 6.89846 52.2303 7.37551C52.3206 7.84611 52.3657 8.31671 52.3657 8.78732V14.5312H50.9346ZM43.3823 14.5312V4.08773H44.6684V6.65993H44.8135V14.5312H43.3823ZM63.7558 10.6923C63.3303 10.6923 62.9435 10.5956 62.5954 10.4022C62.2473 10.2023 61.9701 9.93159 61.7638 9.58992C61.5575 9.24825 61.4544 8.86468 61.4544 8.4392C61.4544 8.00728 61.5575 7.62048 61.7638 7.27881C61.9701 6.93714 62.2473 6.6696 62.5954 6.4762C62.9435 6.28281 63.3303 6.18611 63.7558 6.18611C64.1555 6.18611 64.523 6.28281 64.8582 6.4762C65.1934 6.6696 65.4609 6.93714 65.6608 7.27881C65.8671 7.62048 65.9702 8.00728 65.9702 8.4392C65.9702 8.86468 65.8671 9.24825 65.6608 9.58992C65.4609 9.93159 65.1934 10.2023 64.8582 10.4022C64.523 10.5956 64.1555 10.6923 63.7558 10.6923Z" fill="#8E97A6"/>
</svg>
